<svg xmlns="http://www.w3.org/2000/svg" viewBox="0 0 206.03 173.26"><defs><style>.a,.f{fill:#fff;}.a,.b,.c,.e,.f,.g{stroke:#36c7d6;stroke-width:2px;}.a{stroke-linejoin:round;}.b,.c,.g{fill:none;}.b,.c{stroke-linecap:round;}.b,.c,.e,.f,.g{stroke-miterlimit:10;}.c{stroke-dasharray:6.01 6.01;}.d{fill:#36c7d6;opacity:0.15;}.e{fill:#9ce3eb;}</style></defs><title>404-icon-6</title><polygon class="a" points="102.78 118.26 88.17 114.87 92.69 95.39 103.46 97.89 106.43 102.58 102.78 118.26"/><polygon class="a" points="102.58 101.68 106.43 102.58 103.46 97.89 102.58 101.68"/><polyline class="b" points="117.41 51.75 114.51 50.97 112.42 53.12"/><path class="c" d="M546.92,525.16l-106.43,109a1.15,1.15,0,0,0-.79.81c0,2.76,26.86,5,60,5s60-2.24,60-5l6.12-106.82" transform="translate(-438.7 -467.74)"/><polyline class="b" points="127.29 57.45 127.46 54.45 124.57 53.67"/><ellipse class="d" cx="61" cy="167.26" rx="60" ry="5"/><path class="e" d="M642.67,527.08s-40.32,9.21-83.89-2.46S484.9,484.8,484.9,484.8s40.32-9.21,83.89,2.46S642.67,527.08,642.67,527.08Z" transform="translate(-438.7 -467.74)"/><path class="a" d="M561.35,515A372.74,372.74,0,0,0,642.55,527c-2-1.84-31.71-28.44-73.76-39.7s-81.06-3.08-83.73-2.5A372.74,372.74,0,0,0,561.35,515Z" transform="translate(-438.7 -467.74)"/><path class="f" d="M567.11,493.53a186.73,186.73,0,0,0,32.54,5.85c2.14-11.67-9.33-24.46-26.33-29s-33.33.79-37.31,12A186.73,186.73,0,0,0,567.11,493.53Z" transform="translate(-438.7 -467.74)"/><line class="g" x1="128.41" y1="25.79" x2="122.64" y2="47.3"/><line class="g" x1="109.55" y1="19.76" x2="76.65" y2="31.4"/><line class="g" x1="147.76" y1="30" x2="170.42" y2="56.53"/><path class="b" d="M585.78,483.42a30.78,30.78,0,0,0-13-7" transform="translate(-438.7 -467.74)"/><path class="b" d="M590.84,490.86a16.74,16.74,0,0,0-2.4-4.47" transform="translate(-438.7 -467.74)"/></svg>